<svg version="1.0" xmlns="http://www.w3.org/2000/svg"
  width="177.000000pt" height="180.000000pt" viewBox="0 0 177.000000 180.000000"
  preserveAspectRatio="xMidYMid meet">
  
  <!-- Black background with rounded corners (no border) -->
  <rect width="100%" height="100%" rx="15" ry="15" fill="none"/>

  <g transform="translate(0.000000,180.000000) scale(0.100000,-0.100000)"
     fill="#ffffff" stroke="none">
    <path d="M467 1483 c-4 -3 -7 -137 -7 -297 l0 -291 127 -127 128 -128 -128 0
    -127 0 0 -130 0 -130 284 0 c156 0 308 5 337 10 299 56 418 408 212 630 -33
    36 -77 70 -111 87 -51 25 -67 28 -162 28 -94 0 -111 -3 -161 -28 -31 -15 -77
    -46 -103 -68 l-46 -41 0 116 0 116 345 0 346 0 -3 128 -3 127 -461 3 c-253 1
    -464 -1 -467 -5z m609 -609 c60 -29 82 -110 49 -174 -27 -53 -56 -60 -242 -60
    l-168 0 105 106 c58 58 119 115 135 125 37 23 76 24 121 3z"/>
  </g>
</svg>
